<svg xmlns="http://www.w3.org/2000/svg" viewBox="0 0 512 512">
  <defs>
    <linearGradient id="g" x1="0" y1="0" x2="1" y2="1">
      <stop offset="0" stop-color="#7C3AED"/>
      <stop offset=".55" stop-color="#6366F1"/>
      <stop offset="1" stop-color="#EC4899"/>
    </linearGradient>
  </defs>
  <rect width="512" height="512" rx="110" fill="#0a0918"/>
  <ellipse cx="256" cy="262" rx="218" ry="86" fill="none" stroke="url(#g)" stroke-width="9" opacity=".5" transform="rotate(-18 256 262)"/>
  <rect x="92" y="96" width="328" height="318" rx="90" fill="none" stroke="url(#g)" stroke-width="20"/>
  <rect x="249" y="38" width="14" height="56" rx="7" fill="#EC4899"/>
  <circle cx="256" cy="40" r="24" fill="#EC4899"/>
  <rect x="150" y="204" width="82" height="58" rx="20" fill="#7C3AED"/>
  <rect x="280" y="204" width="82" height="58" rx="20" fill="#7C3AED"/>
  <circle cx="191" cy="233" r="11" fill="#fff"/>
  <circle cx="321" cy="233" r="11" fill="#fff"/>
  <rect x="178" y="318" width="22" height="36" rx="8" fill="url(#g)"/>
  <rect x="216" y="306" width="22" height="60" rx="8" fill="url(#g)"/>
  <rect x="254" y="296" width="22" height="80" rx="8" fill="url(#g)"/>
  <rect x="292" y="312" width="22" height="48" rx="8" fill="url(#g)"/>
</svg>
